<svg width="40" height="40" viewBox="0 0 40 40" fill="none" xmlns="http://www.w3.org/2000/svg">
<path fill-rule="evenodd" clip-rule="evenodd" d="M16.3647 2.72736C8.83354 2.72736 2.72834 8.83256 2.72834 16.3637C2.72834 23.8948 8.83354 30.0001 16.3647 30.0001C23.8958 30.0001 30.0011 23.8948 30.0011 16.3637C30.0011 8.83256 23.8958 2.72736 16.3647 2.72736ZM0.910156 16.3637C0.910156 7.82842 7.82939 0.90918 16.3647 0.90918C24.9 0.90918 31.8192 7.82842 31.8192 16.3637C31.8192 24.899 24.9 31.8183 16.3647 31.8183C7.82939 31.8183 0.910156 24.899 0.910156 16.3637Z" fill="#222222"/>
<path fill-rule="evenodd" clip-rule="evenodd" d="M27.0083 25.7207L38.8265 37.5389L37.5408 38.8247L25.7227 27.0065L27.0083 25.7207Z" fill="#222222"/>
<path fill-rule="evenodd" clip-rule="evenodd" d="M16.3619 9.99982C14.8556 9.99982 13.6346 11.2209 13.6346 12.7271C13.6346 14.2333 14.8556 15.4544 16.3619 15.4544C17.868 15.4544 19.0891 14.2333 19.0891 12.7271C19.0891 11.2209 17.868 9.99982 16.3619 9.99982ZM11.8164 12.7271C11.8164 10.2167 13.8515 8.18164 16.3619 8.18164C18.8722 8.18164 20.9073 10.2167 20.9073 12.7271C20.9073 15.2375 18.8722 17.2725 16.3619 17.2725C13.8515 17.2725 11.8164 15.2375 11.8164 12.7271Z" fill="#222222"/>
<path fill-rule="evenodd" clip-rule="evenodd" d="M10.0662 22.7273H22.6647C22.2234 19.6435 19.5712 17.2728 16.3654 17.2728C13.1595 17.2728 10.5073 19.6435 10.0662 22.7273ZM8.18359 23.6364C8.18359 19.1177 11.8467 15.4546 16.3654 15.4546C20.8841 15.4546 24.5472 19.1177 24.5472 23.6364C24.5472 24.1384 24.1401 24.5455 23.6381 24.5455H9.09268C8.59061 24.5455 8.18359 24.1384 8.18359 23.6364Z" fill="#222222"/>
</svg>
