<svg width="40" height="40" viewBox="0 0 40 40" fill="none" xmlns="http://www.w3.org/2000/svg">
<path d="M27.33 7.94986V10.9999C27.33 11.5499 27.78 11.9999 28.33 11.9999C28.88 11.9999 29.33 11.5499 29.33 10.9999V7.94986C29.33 6.28986 27.99 4.94986 26.33 4.94986H20.7V4.35986C20.7 2.14986 18.91 0.359863 16.7 0.359863H12.63C10.42 0.359863 8.63 2.14986 8.63 4.35986V4.94986H3C1.34 4.94986 0 6.28986 0 7.94986V24.2399C0 25.8899 1.35 27.2399 3 27.2399H17.84C18.39 27.2399 18.84 26.7899 18.84 26.2399C18.84 26.1899 18.85 25.3499 18.88 25.0799C18.93 24.5299 18.52 24.0399 17.97 23.9999C17.43 23.9599 16.93 24.3599 16.89 24.9099C16.89 25.0199 16.89 25.1299 16.88 25.2499H3C2.45 25.2499 2 24.7999 2 24.2499V7.94986C2 7.39986 2.45 6.94986 3 6.94986H8.63V9.50986C8.63 10.0599 9.08 10.5099 9.63 10.5099H19.7C20.25 10.5099 20.7 10.0599 20.7 9.50986V6.94986H26.33C26.88 6.94986 27.33 7.39986 27.33 7.94986ZM18.7 8.50986H10.63V6.94986H18.7V8.50986ZM18.7 4.94986H10.63V4.35986C10.63 3.25986 11.53 2.35986 12.63 2.35986H16.7C17.8 2.35986 18.7 3.25986 18.7 4.35986V4.94986Z" fill="#222222"/>
<path d="M28.3281 20.23C27.7781 20.23 27.3281 20.68 27.3281 21.23V26.23C27.3281 26.78 27.7781 27.23 28.3281 27.23H31.3281C31.8781 27.23 32.3281 26.78 32.3281 26.23C32.3281 25.68 31.8781 25.23 31.3281 25.23H29.3281V21.23C29.3281 20.68 28.8781 20.23 28.3281 20.23Z" fill="#222222"/>
<path d="M22.2318 16.1698C22.0818 16.2698 21.9318 16.3698 21.7818 16.4698C21.3318 16.7798 21.2118 17.4098 21.5318 17.8598C21.7218 18.1398 22.0418 18.2898 22.3518 18.2898C22.5518 18.2898 22.7418 18.2298 22.9218 18.1098C23.0418 18.0198 23.1718 17.9398 23.3018 17.8598C23.7718 17.5698 23.9118 16.9498 23.6118 16.4798C23.3218 16.0098 22.7018 15.8698 22.2318 16.1698Z" fill="#222222"/>
<path d="M19.5819 29.6C19.3719 29.09 18.7819 28.85 18.2719 29.07C17.7619 29.28 17.5219 29.87 17.7419 30.38C17.8919 30.73 18.0519 31.06 18.2319 31.39C18.4119 31.72 18.7519 31.91 19.1119 31.91C19.2719 31.91 19.4319 31.87 19.5919 31.79C20.0819 31.53 20.2619 30.92 19.9919 30.43C19.8419 30.16 19.7119 29.88 19.5919 29.6H19.5819Z" fill="#222222"/>
<path d="M20.0617 19.37C19.6017 19.07 18.9817 19.2 18.6817 19.67C18.4817 19.98 18.2917 20.3 18.1217 20.63C17.8717 21.12 18.0617 21.72 18.5517 21.98C18.7017 22.06 18.8517 22.09 19.0117 22.09C19.3717 22.09 19.7217 21.89 19.9017 21.55C20.0417 21.28 20.2017 21.01 20.3617 20.75C20.6617 20.29 20.5317 19.67 20.0617 19.37Z" fill="#222222"/>
<path d="M22.3404 33.2698C21.9104 32.9198 21.2804 32.9798 20.9304 33.4098C20.5804 33.8398 20.6404 34.4698 21.0704 34.8198C21.2104 34.9398 21.3604 35.0498 21.5004 35.1598C21.6804 35.2898 21.8904 35.3598 22.0904 35.3598C22.4004 35.3598 22.7004 35.2198 22.9004 34.9498C23.2304 34.4998 23.1304 33.8798 22.6904 33.5498C22.5704 33.4598 22.4504 33.3698 22.3304 33.2698H22.3404Z" fill="#222222"/>
<path d="M28.3415 14.4102C27.4415 14.4102 26.5415 14.5202 25.6715 14.7202C25.1315 14.8502 24.8015 15.3902 24.9315 15.9202C25.0615 16.4602 25.6015 16.7902 26.1315 16.6602C26.8515 16.4902 27.5915 16.4002 28.3415 16.4002C33.5815 16.4002 37.8415 20.6602 37.8415 25.9002C37.8415 31.1402 33.5815 35.4002 28.3415 35.4002C27.2915 35.4002 26.2615 35.2302 25.2815 34.9002C24.7615 34.7202 24.1915 35.0002 24.0115 35.5302C23.8315 36.0502 24.1115 36.6202 24.6415 36.8002C25.8315 37.2002 27.0715 37.4102 28.3415 37.4102C34.6815 37.4102 39.8415 32.2502 39.8415 25.9102C39.8415 19.5702 34.6815 14.4102 28.3415 14.4102Z" fill="#222222"/>
</svg>
