<svg width="40" height="40" viewBox="0 0 40 40" fill="none" xmlns="http://www.w3.org/2000/svg">
<g clip-path="url(#clip0_999_20582)">
<path d="M25.4695 39.6193C25.022 39.6219 24.5849 39.4797 24.2195 39.2129L20.0008 36.1613L15.7758 39.2129C15.5012 39.4077 15.1869 39.5347 14.8571 39.5838C14.5273 39.633 14.191 39.6031 13.8743 39.4964C13.5575 39.3897 13.2689 39.2091 13.0307 38.9686C12.7925 38.7281 12.6112 38.4342 12.5008 38.1097L10.8195 33.0774L5.6258 32.9806C5.2899 32.9736 4.96014 32.8864 4.66237 32.7259C4.3646 32.5653 4.10691 32.3356 3.90953 32.055C3.71214 31.7744 3.58041 31.4504 3.52468 31.1084C3.46895 30.7664 3.49072 30.4157 3.5883 30.0839L5.0883 24.9935L0.975796 21.7677C0.707869 21.559 0.490518 21.289 0.340849 20.9789C0.191181 20.6688 0.113281 20.3271 0.113281 19.9806C0.113281 19.6342 0.191181 19.2924 0.340849 18.9823C0.490518 18.6722 0.707869 18.4022 0.975796 18.1935L5.0883 14.9677L3.5883 9.87095C3.49746 9.54188 3.48092 9.19569 3.53992 8.85899C3.59892 8.52229 3.73191 8.20403 3.92866 7.92866C4.12542 7.65329 4.3807 7.42814 4.67491 7.2705C4.96911 7.11287 5.2944 7.02694 5.6258 7.01933L10.782 6.92256L12.5008 1.8903C12.6104 1.56277 12.7921 1.26597 13.0317 1.02326C13.2712 0.780554 13.5621 0.598563 13.8814 0.491619C14.2007 0.384674 14.5397 0.355696 14.8717 0.406966C15.2036 0.458236 15.5196 0.588354 15.7945 0.787076L20.0008 3.87095L24.2258 0.819334C24.4983 0.623839 24.8107 0.49551 25.1388 0.444227C25.4669 0.392944 25.802 0.420075 26.1184 0.523531C26.4348 0.626987 26.7239 0.804008 26.9636 1.04096C27.2033 1.27792 27.387 1.56849 27.5008 1.8903L29.182 6.92256L34.3383 7.01933C34.6742 7.02631 35.004 7.11351 35.3017 7.27411C35.5995 7.4347 35.8572 7.66431 36.0546 7.94494C36.252 8.22558 36.3837 8.54959 36.4394 8.89159C36.4951 9.23358 36.4734 9.58426 36.3758 9.91611L34.8758 15.0064L38.9883 18.2322C39.2562 18.4409 39.4736 18.7109 39.6232 19.021C39.7729 19.3311 39.8508 19.6729 39.8508 20.0193C39.8508 20.3658 39.7729 20.7075 39.6232 21.0176C39.4736 21.3277 39.2562 21.5978 38.9883 21.8064L34.8758 25.0322L36.3758 30.1226C36.4658 30.4489 36.483 30.7921 36.4261 31.1263C36.3692 31.4605 36.2396 31.7771 36.0471 32.0521C35.8546 32.3272 35.6042 32.5537 35.3147 32.7145C35.0253 32.8753 34.7042 32.9663 34.3758 32.9806L29.2195 33.0774L27.5008 38.1097C27.3538 38.5502 27.0773 38.9325 26.7098 39.2031C26.3423 39.4737 25.9022 39.6192 25.4508 39.6193H25.4695ZM14.532 2.31611C14.5011 2.31001 14.4693 2.31001 14.4383 2.31611C14.395 2.32983 14.3554 2.35393 14.3228 2.38645C14.2902 2.41896 14.2656 2.45897 14.2508 2.5032L12.3758 8.17417C12.3136 8.36139 12.1966 8.52403 12.041 8.63961C11.8854 8.75519 11.6988 8.818 11.507 8.81933L5.7008 8.92901C5.65422 8.93001 5.60851 8.94219 5.56729 8.96458C5.52606 8.98698 5.49046 9.01898 5.4633 9.05804C5.43639 9.09549 5.41841 9.13895 5.4108 9.18491C5.4032 9.23086 5.4062 9.27802 5.41955 9.32256L7.1133 15.0645C7.1696 15.2575 7.16613 15.4638 7.10339 15.6546C7.04064 15.8454 6.92175 16.0113 6.7633 16.129L2.1258 19.7548C2.08835 19.783 2.05788 19.8198 2.03687 19.8624C2.01586 19.905 2.00491 19.9522 2.00491 20C2.00491 20.0478 2.01586 20.0949 2.03687 20.1375C2.05788 20.1801 2.08835 20.217 2.1258 20.2451L6.7633 23.8709C6.91596 23.9903 7.02954 24.1551 7.08876 24.3431C7.14798 24.5311 7.15 24.7333 7.09455 24.9226L5.4008 30.6645C5.38927 30.7092 5.38721 30.756 5.39476 30.8017C5.40231 30.8473 5.41929 30.8907 5.44455 30.929C5.47266 30.9671 5.50848 30.9983 5.5495 31.0206C5.59052 31.0429 5.63575 31.0557 5.68205 31.058L11.4883 31.1677C11.68 31.1691 11.8666 31.2319 12.0222 31.3474C12.1779 31.463 12.2949 31.6257 12.357 31.8129L14.232 37.4839C14.2468 37.5281 14.2715 37.5681 14.3041 37.6006C14.3366 37.6331 14.3762 37.6572 14.4195 37.6709C14.463 37.6873 14.5097 37.6923 14.5555 37.6855C14.6013 37.6788 14.6447 37.6605 14.682 37.6322L19.4633 34.1935C19.6209 34.0797 19.8085 34.0187 20.0008 34.0187C20.1931 34.0187 20.3807 34.0797 20.5383 34.1935L25.3008 37.6322C25.3381 37.6605 25.3816 37.6788 25.4273 37.6855C25.4731 37.6923 25.5198 37.6873 25.5633 37.6709C25.6066 37.6572 25.6462 37.6331 25.6788 37.6006C25.7114 37.5681 25.736 37.5281 25.7508 37.4839L27.6258 31.8129C27.688 31.6257 27.805 31.463 27.9606 31.3474C28.1162 31.2319 28.3028 31.1691 28.4945 31.1677L34.3008 31.058C34.3471 31.0557 34.3923 31.0429 34.4333 31.0206C34.4744 30.9983 34.5102 30.9671 34.5383 30.929C34.5652 30.8916 34.5832 30.8481 34.5908 30.8021C34.5984 30.7562 34.5954 30.709 34.582 30.6645L32.8883 24.9226C32.8348 24.7314 32.8397 24.5279 32.9024 24.3397C32.965 24.1515 33.0823 23.9878 33.2383 23.8709L37.8758 20.258C37.9132 20.2299 37.9437 20.193 37.9647 20.1504C37.9857 20.1078 37.9967 20.0607 37.9967 20.0129C37.9967 19.9651 37.9857 19.9179 37.9647 19.8753C37.9437 19.8327 37.9132 19.7959 37.8758 19.7677L33.2383 16.129C33.0856 16.0096 32.972 15.8449 32.9128 15.6569C32.8536 15.4688 32.8516 15.2666 32.907 15.0774L34.6008 9.33546C34.6123 9.29072 34.6144 9.24393 34.6068 9.19829C34.5993 9.15264 34.5823 9.10921 34.557 9.07095C34.5299 9.03188 34.4943 8.99988 34.4531 8.97749C34.4118 8.95509 34.3661 8.94291 34.3195 8.94191L28.5133 8.83224C28.3216 8.8309 28.135 8.7681 27.9794 8.65252C27.8237 8.53694 27.7067 8.37429 27.6445 8.18708L25.7695 2.51611C25.7548 2.47187 25.7301 2.43187 25.6975 2.39935C25.6649 2.36684 25.6254 2.34273 25.582 2.32901C25.5386 2.31269 25.4919 2.30768 25.4461 2.31443C25.4003 2.32118 25.3568 2.33949 25.3195 2.36772L20.5383 5.80643C20.3807 5.92024 20.1931 5.98128 20.0008 5.98128C19.8085 5.98128 19.6209 5.92024 19.4633 5.80643L14.7008 2.37417C14.6519 2.33689 14.5928 2.31656 14.532 2.31611Z" fill="black"/>
<path d="M19.9977 31.3809C17.8171 31.3809 15.6856 30.7135 13.8725 29.4629C12.0594 28.2124 10.6463 26.435 9.81189 24.3555C8.97743 22.2759 8.7591 19.9877 9.1845 17.78C9.60991 15.5724 10.6599 13.5446 12.2018 11.9529C13.7437 10.3613 15.7081 9.27743 17.8468 8.83831C19.9854 8.39919 22.2022 8.62456 24.2167 9.48593C26.2313 10.3473 27.9532 11.806 29.1646 13.6775C30.3761 15.5491 31.0227 17.7494 31.0227 20.0003C31.0194 23.0176 29.8567 25.9103 27.7899 28.0438C25.723 30.1774 22.9207 31.3775 19.9977 31.3809ZM19.9977 10.5551C18.188 10.5551 16.4189 11.1091 14.9142 12.1469C13.4095 13.1848 12.2367 14.6599 11.5442 16.3858C10.8516 18.1116 10.6704 20.0108 11.0235 21.8429C11.3765 23.6751 12.248 25.3581 13.5276 26.679C14.8073 27.9999 16.4377 28.8995 18.2126 29.264C19.9875 29.6284 21.8273 29.4414 23.4992 28.7265C25.1712 28.0116 26.6002 26.801 27.6056 25.2477C28.611 23.6945 29.1477 21.8684 29.1477 20.0003C29.1444 17.4963 28.1793 15.0959 26.464 13.3253C24.7488 11.5547 22.4234 10.5585 19.9977 10.5551Z" fill="black"/>
<path d="M15.8291 18.9355C15.6101 18.9316 15.3951 18.996 15.2122 19.1202C15.0293 19.2445 14.887 19.4229 14.8039 19.6321C14.7209 19.8412 14.7009 20.0714 14.7467 20.2924C14.7924 20.5135 14.9017 20.7151 15.0603 20.871L17.8041 23.6968C17.9046 23.8016 18.0244 23.8847 18.1564 23.9412C18.2884 23.9977 18.4299 24.0265 18.5728 24.0258C18.7219 24.0254 18.8694 23.9943 19.0067 23.9345C19.144 23.8747 19.2685 23.7873 19.3728 23.6774L24.9291 17.9355C25.0321 17.8305 25.1138 17.7054 25.1696 17.5675C25.2255 17.4297 25.2542 17.2817 25.2542 17.1323C25.2542 16.9828 25.2255 16.8349 25.1696 16.697C25.1138 16.5591 25.0321 16.4341 24.9291 16.3291C24.7186 16.1216 24.4388 16.0059 24.1478 16.0059C23.8568 16.0059 23.577 16.1216 23.3666 16.3291L18.5603 21.2903L16.5978 19.2645C16.4973 19.1597 16.3775 19.0766 16.2456 19.0201C16.1136 18.9636 15.972 18.9349 15.8291 18.9355Z" fill="black"/>
</g>
<defs>
<clipPath id="clip0_999_20582">
<rect width="40" height="40" fill="white"/>
</clipPath>
</defs>
</svg>
