<svg width="40" height="40" viewBox="0 0 40 40" fill="none" xmlns="http://www.w3.org/2000/svg">
<path d="M32.5517 27.9604C31.6374 27.9604 30.7655 28.2266 30.0201 28.7204L26.0228 24.723C28.4249 21.7207 28.4249 17.4186 26.0228 14.4153L30.0201 10.417C30.7655 10.9108 31.6374 11.1779 32.5517 11.1779C33.777 11.1779 34.9299 10.7006 35.7964 9.83411C37.5853 8.04424 37.5853 5.13273 35.7964 3.34378C34.9299 2.4773 33.777 2 32.5517 2C31.3254 2 30.1725 2.4773 29.306 3.34378C27.7392 4.91152 27.5446 7.33839 28.7223 9.12L24.7249 13.1183C23.2655 11.9489 21.4682 11.3101 19.571 11.3101C17.6737 11.3101 15.8765 11.9489 14.4171 13.1192L10.4188 9.12092C11.5964 7.34023 11.4018 4.91243 9.83503 3.3447C8.96855 2.47822 7.81569 2.00092 6.5894 2.00092C5.36311 2.00092 4.21117 2.47822 3.34378 3.3447C2.47638 4.21117 2 5.36403 2 6.59032C2 7.81661 2.4773 8.96855 3.34378 9.83595C4.21026 10.7033 5.36311 11.1797 6.5894 11.1797C7.50361 11.1797 8.3756 10.9126 9.12 10.4188L13.1183 14.4171C10.7162 17.4204 10.7162 21.7216 13.1183 24.7249L9.12092 28.7223C8.37651 28.2284 7.50361 27.9622 6.59032 27.9622C5.36495 27.9622 4.21209 28.4395 3.34469 29.306C1.55575 31.095 1.55575 34.0074 3.34469 35.7964C4.21117 36.6628 5.36403 37.1401 6.59032 37.1401C7.81661 37.1401 8.96855 36.6628 9.83595 35.7964C11.4018 34.2295 11.5955 31.8008 10.4188 30.0201L14.4171 26.0228C15.8756 27.1912 17.6728 27.8292 19.5701 27.8292C21.4673 27.8292 23.2645 27.1912 24.724 26.02L28.7213 30.0174C27.5446 31.7981 27.7392 34.2268 29.3051 35.7936C30.1716 36.6601 31.3244 37.1374 32.5507 37.1374C33.7761 37.1374 34.929 36.6601 35.7954 35.7936C37.5835 34.0047 37.5835 31.0922 35.7954 29.3033C34.929 28.4368 33.777 27.9604 32.5517 27.9604ZM30.6039 4.63982C31.1234 4.1203 31.8155 3.83393 32.5517 3.83393C33.2869 3.83393 33.979 4.1203 34.4985 4.63982C35.5715 5.71374 35.5715 7.46047 34.4985 8.53439C33.4576 9.57527 31.6429 9.57435 30.6039 8.53439C29.5309 7.46139 29.5309 5.71374 30.6039 4.63982ZM4.64166 8.53439C4.12214 8.01395 3.83576 7.32279 3.83576 6.58665C3.83576 5.85051 4.12214 5.15934 4.64166 4.63891C5.1621 4.11939 5.85326 3.83301 6.5894 3.83301C7.32554 3.83301 8.01671 4.11939 8.53714 4.63891C9.61015 5.71283 9.61015 7.45955 8.53714 8.53347C7.49719 9.57435 5.68162 9.57435 4.64166 8.53439ZM8.53623 34.4966C7.49627 35.5366 5.68162 35.5366 4.64166 34.4966C3.56866 33.4227 3.56866 31.676 4.64166 30.6021C5.16118 30.0826 5.85326 29.7962 6.5894 29.7962C7.32554 29.7962 8.01671 30.0826 8.53623 30.6021C9.60923 31.6751 9.60923 33.4227 8.53623 34.4966ZM15.0266 24.1117C12.5217 21.6068 12.5217 17.5305 15.0266 15.0256C16.24 13.8122 17.8536 13.144 19.5701 13.144C21.2865 13.144 22.8992 13.8122 24.1136 15.0256C26.6185 17.5305 26.6185 21.6068 24.1136 24.1117C22.9001 25.3252 21.2865 25.9934 19.5701 25.9934C17.8536 25.9934 16.2409 25.3252 15.0266 24.1117ZM34.4985 34.4966C33.4576 35.5366 31.6429 35.5366 30.6039 34.4966C29.5309 33.4227 29.5309 31.676 30.6039 30.6021C31.1234 30.0826 31.8155 29.7962 32.5517 29.7962C33.2869 29.7962 33.979 30.0826 34.4985 30.6021C35.5715 31.6751 35.5715 33.4227 34.4985 34.4966Z" fill="#222222"/>
</svg>
